<svg xmlns="http://www.w3.org/2000/svg" xmlns:xlink="http://www.w3.org/1999/xlink" width="48" zoomAndPan="magnify" viewBox="0 0 36 36.000001" height="48" preserveAspectRatio="xMidYMid meet" version="1.0"><defs><clipPath id="6f6b746254"><path d="M 4.492188 0.164062 L 31.492188 0.164062 L 31.492188 19 L 4.492188 19 Z M 4.492188 0.164062 " clip-rule="nonzero"/></clipPath><clipPath id="6e968d71ea"><path d="M 5 14 L 31 14 L 31 35.027344 L 5 35.027344 Z M 5 14 " clip-rule="nonzero"/></clipPath></defs><g clip-path="url(#6f6b746254)"><path stroke-linecap="round" transform="matrix(0.0161564, 0, 0, 0.0162425, 4.49705, 0.16478)" fill-opacity="1" fill="#f20d0d" fill-rule="evenodd" stroke-linejoin="round" d="M 67.154898 1130.282801 C 31.855424 1038.654169 12.513246 939.0892 12.513246 835.195318 C 12.513246 381.140578 381.223508 12.461596 835.281129 12.461596 C 1289.33875 12.461596 1658.049012 381.140578 1658.049012 835.195318 C 1658.049012 939.0892 1638.706834 1038.654169 1603.40736 1130.282801 C 1401.52338 943.658607 1131.458224 829.423436 835.281129 829.423436 C 538.862256 829.423436 269.038877 943.658607 67.154898 1130.282801 Z M 67.154898 1130.282801 " stroke="#000000" stroke-width="25" stroke-opacity="1" stroke-miterlimit="1.5"/></g><path fill="#ffffff" d="M 29.847656 19.773438 C 27.886719 23.648438 24.105469 26.4375 19.636719 26.992188 L 19.636719 34.988281 L 16.347656 34.988281 L 16.347656 26.992188 C 11.878906 26.4375 8.09375 23.648438 6.132812 19.773438 C 9.226562 16.828125 13.398438 15.019531 17.992188 15.019531 C 22.582031 15.019531 26.757812 16.828125 29.847656 19.773438 Z M 29.847656 19.773438 " fill-opacity="1" fill-rule="evenodd"/><g clip-path="url(#6e968d71ea)"><path stroke-linecap="round" transform="matrix(0.0161564, 0, 0, 0.0162425, 4.49705, 0.16478)" fill="none" stroke-linejoin="round" d="M 1569.074994 1207.241231 C 1447.702829 1445.812366 1213.662479 1617.525865 937.069339 1651.676168 L 937.069339 2143.969629 L 733.492919 2143.969629 L 733.492919 1651.676168 C 456.899778 1617.525865 222.617651 1445.812366 101.245486 1207.241231 C 292.733045 1025.907929 550.951117 914.5587 835.281129 914.5587 C 1119.369363 914.5587 1377.829212 1025.907929 1569.074994 1207.241231 Z M 1569.074994 1207.241231 " stroke="#000000" stroke-width="25" stroke-opacity="1" stroke-miterlimit="1.5"/></g></svg>